<svg width="318" height="285" viewBox="0 0 318 285" fill="none" xmlns="http://www.w3.org/2000/svg">
<path d="M235 164.799C242.93 161.474 248.5 153.638 248.5 144.501C248.5 135.951 243.623 128.541 236.5 124.9C233.5 123.366 230.101 122.501 226.5 122.501C218.357 122.501 211.248 126.925 207.444 133.5C205.572 136.736 204.5 140.493 204.5 144.501C204.5 156.651 214.35 166.501 226.5 166.501C229.513 166.501 232.385 165.895 235 164.799Z" fill="#6A9BD6"/>
<path d="M28 50V166.501M28 50C40.1503 50 50 40.1503 50 28C50 15.8498 40.1503 6 28 6C15.8497 6 6 15.8498 6 28C6 40.1503 15.8497 50 28 50ZM28.5 225.001L28 166.501M28.5 225.001C16.3497 225.001 6.5 234.851 6.5 247.001C6.5 259.151 16.3497 269.001 28.5 269.001C40.6503 269.001 50.5 259.151 50.5 247.001C50.5 234.851 40.6503 225.001 28.5 225.001ZM39.5 46.7587L102 141.001M102 141.001L155.5 149.001M102 141.001L70.9783 196.329M155.5 149.001L172.5 141.001L204.5 144.501M155.5 149.001L122.5 176.5C126.333 180.667 135.2 188.6 140 187C144.8 185.4 163.667 175 172.5 170L224.5 213.001M204.5 144.501C204.5 156.651 214.35 166.501 226.5 166.501M204.5 144.501C204.5 132.351 214.35 122.501 226.5 122.501M204.5 144.501C204.5 140.493 205.572 136.736 207.444 133.5M159.012 103.501L270.151 37.5M47.8488 37.5L207.444 133.5M207.444 133.5C211.248 126.925 218.357 122.501 226.5 122.501M279.5 47.3374L236.5 124.9M236.5 124.9C243.623 128.541 248.5 135.951 248.5 144.501M236.5 124.9C233.5 123.366 230.101 122.501 226.5 122.501M290 50V167.501M290 50C302.15 50 312 40.1503 312 28C312 15.8498 302.15 6 290 6C277.85 6 268 15.8498 268 28C268 40.1503 277.85 50 290 50ZM290 225.001V167.501M290 225.001C277.85 225.001 268 234.851 268 247.001C268 259.151 277.85 269.001 290 269.001C302.15 269.001 312 259.151 312 247.001C312 234.851 302.15 225.001 290 225.001ZM290 167.501L248.5 196.329M224.5 213.001L247 197.501M224.5 213.001C227.5 216 232 223 226.5 230C221 237 212.5 235 210 233M248.5 196.329L275.244 230.683M248.5 196.329L247 197.501M235 164.799L247 197.501M235 164.799C242.93 161.474 248.5 153.638 248.5 144.501M235 164.799C232.385 165.895 229.513 166.501 226.5 166.501M28 166.501L70.9783 196.329M95 213.001L70.9783 196.329M95 213.001C98 209.001 106 202.4 114 208C122 213.6 116.333 223.333 112.5 227.5M95 213.001C91.1666 217.501 85.7998 227.8 95 233C104.2 238.2 110.5 231.5 112.5 227.5M70.9783 196.329L41.5 229.251M248.5 144.501C248.5 156.651 238.65 166.501 226.5 166.501M248.5 144.501C248.5 132.351 238.65 122.501 226.5 122.501M180 208L210 233M210 233C213.125 235.5 214 243.5 209 248.5C204 253.5 195.5 251 192.5 248.5M165.5 226.5L192.5 248.5M192.5 248.5C193.667 251 194.4 257.7 188 264.5C181.6 271.3 170.333 260.667 165.5 254.5M112.5 227.5C108.5 232 102.4 242.6 110 249C119.5 257 127.5 247 132.5 240.5M112.5 227.5C116.833 223 127.3 215.2 134.5 220C141.7 224.8 136.167 235.667 132.5 240.5M132.5 240.5C137.5 234 143.5 230.5 150.5 236C157.5 241.5 155 249.5 148 258M132.5 240.5C127.667 245.833 119.9 258 127.5 264C135.1 270 144.333 262.5 148 258M148 258C141 266.5 141.5 271.5 148 276.5C154.5 281.5 162.5 276.5 166.5 270C170.5 263.5 172 259 165.5 254.5M148 258C154.5 249 159 250 165.5 254.5" stroke="black" stroke-width="12"/>
</svg>
